<?xml version="1.0" standalone="no"?>
<!DOCTYPE svg PUBLIC "-//W3C//DTD SVG 20010904//EN"
 "http://www.w3.org/TR/2001/REC-SVG-20010904/DTD/svg10.dtd">
<svg version="1.0" xmlns="http://www.w3.org/2000/svg"
 width="500.000000pt" height="500.000000pt" viewBox="0 0 500.000000 500.000000"
 preserveAspectRatio="xMidYMid meet">

<g transform="translate(0.000000,500.000000) scale(0.100000,-0.100000)"
fill="#000000" stroke="none">
<path d="M1770 3055 l0 -75 110 0 110 0 0 75 0 75 -110 0 -110 0 0 -75z"/>
<path d="M2550 3055 l0 -75 110 0 110 0 0 75 0 75 -110 0 -110 0 0 -75z"/>
<path d="M3100 3055 l0 -75 110 0 110 0 0 75 0 75 -110 0 -110 0 0 -75z"/>
<path d="M1497 3073 c-4 -3 -7 -48 -7 -100 l0 -93 -30 0 -30 0 0 -80 0 -80 29
0 30 0 3 -317 c3 -353 5 -364 68 -395 31 -15 59 -16 233 -11 l197 6 0 459 0
458 -110 0 c-103 0 -110 -1 -110 -20 0 -16 -7 -20 -30 -20 l-30 0 0 100 0 100
-103 0 c-57 0 -107 -3 -110 -7z m271 -634 c2 -240 0 -278 -13 -283 -8 -3 -22
-3 -30 0 -13 5 -15 46 -15 286 l0 279 28 -3 27 -3 3 -276z"/>
<path d="M2010 2540 l0 -540 105 0 105 0 1 213 c0 133 4 205 9 192 5 -11 37
-107 70 -212 l61 -193 205 0 204 0 0 361 0 360 28 -3 27 -3 5 -325 c4 -245 8
-331 18 -348 26 -46 62 -51 275 -45 l197 6 0 459 0 458 -110 0 c-103 0 -110
-1 -110 -20 0 -16 -7 -20 -30 -20 l-30 0 0 100 0 100 -105 0 -104 0 -3 -97 -3
-98 -27 -3 c-23 -3 -28 1 -28 18 0 20 -3 20 -222 18 l-221 -3 -51 -150 -51
-150 -3 233 -2 232 -105 0 -105 0 0 -540z m539 -27 l-1 -378 -65 190 -65 190
64 187 c35 104 64 188 66 188 1 0 2 -170 1 -377z m551 -72 c0 -239 -2 -280
-15 -285 -8 -3 -22 -3 -30 0 -13 5 -15 46 -15 285 l0 279 30 0 30 0 0 -279z"/>
<path d="M3404 2196 c-31 -31 -34 -40 -34 -91 0 -51 3 -60 34 -91 31 -31 40
-34 91 -34 51 0 60 3 91 34 31 31 34 39 34 91 0 53 -3 60 -36 91 -31 30 -42
34 -91 34 -49 0 -59 -4 -89 -34z"/>
</g>
</svg>
